<?xml version="1.0" encoding="UTF-8" standalone="no"?>
<!-- Created with Inkscape (http://www.inkscape.org/) -->

<svg
   version="1.1"
   id="svg2"
   width="1128.4268"
   height="185"
   viewBox="0 0 1128.4268 185"
   xmlns="http://www.w3.org/2000/svg"
   xmlns:svg="http://www.w3.org/2000/svg">
  <defs
     id="defs6" />
  <g
     id="g8"
     transform="matrix(1.3333333,0,0,-1.3333333,0,185)">
    <g
       id="g10"
       transform="scale(0.1)">
      <path
         d="m 2173.88,204.949 h 397.39 v 208.793 h -374.29 c -75.05,0 -126.38,-7.699 -153.96,-23.097 -28.86,-17.317 -43.29,-46.825 -43.29,-88.516 0,-35.93 11.21,-60.949 33.68,-75.059 21.16,-14.761 67.98,-22.121 140.47,-22.121 z m -424.32,812.091 h 652.37 c 164.19,0 288.32,-31.606 372.36,-94.782 84.03,-63.188 126.05,-158.281 126.05,-285.289 L 2900.34,0 h -857.32 c -118.03,0 -209.75,25.6484 -275.18,76.9805 -66.08,50.0315 -99.1,122.1915 -99.1,216.4885 0,116.09 37.52,198.84 112.57,248.246 75.05,50.027 198.53,75.051 370.44,75.051 h 419.52 v 25.976 c 0,59.012 -21.5,101.656 -64.47,127.973 -43.62,25.015 -118.68,37.523 -225.15,37.523 h -532.09 v 208.802"
         style="fill:#fff;fill-opacity:1;fill-rule:nonzero;stroke:none"
         id="path12" />
      <path
         d="m 2964.41,1017.04 h 224.2 v 370.44 h 318.48 V 1017.04 H 3842.9 V 815.938 H 3507.09 V 404.117 c 0,-76.336 15.4,-128.926 46.19,-157.797 28.86,-28.859 82.1,-43.3 159.72,-43.3 h 129.9 V 0 h -291.55 c -116.75,0 -205.91,27.5703 -267.49,82.75 -63.5,51.309 -95.25,130.211 -95.25,236.691 v 496.497 h -224.2 v 201.102"
         style="fill:#fff;fill-opacity:1;fill-rule:nonzero;stroke:none"
         id="path14" />
      <path
         d="m 4383.26,204.949 h 397.37 v 208.793 h -374.28 c -75.05,0 -126.38,-7.699 -153.95,-23.097 -28.87,-17.317 -43.3,-46.825 -43.3,-88.516 0,-35.93 11.21,-60.949 33.68,-75.059 21.17,-14.761 67.98,-22.121 140.48,-22.121 z m -424.33,812.091 h 652.36 c 164.2,0 288.33,-31.606 372.37,-94.782 84.02,-63.188 126.04,-158.281 126.04,-285.289 V 0 h -857.3 c -118.03,0 -209.75,25.6484 -275.18,76.9805 -66.08,50.0315 -99.11,122.1915 -99.11,216.4885 0,116.09 37.52,198.84 112.57,248.246 75.06,50.027 198.53,75.051 370.45,75.051 h 419.5 v 25.976 c 0,59.012 -21.49,101.656 -64.46,127.973 -43.63,25.015 -118.68,37.523 -225.15,37.523 h -532.09 v 208.802"
         style="fill:#fff;fill-opacity:1;fill-rule:nonzero;stroke:none"
         id="path16" />
      <path
         d="m 5554.73,0 -715.87,1387.48 h 392.57 L 5726,353.121 6234.03,1387.48 h 368.52 L 5915.56,0 h -360.83"
         style="fill:#fff;fill-opacity:1;fill-rule:nonzero;stroke:none"
         id="path18" />
      <path
         d="M 6894.24,0 C 6694.11,0 6543.05,42.6484 6441.06,127.969 6337.77,213.27 6286.14,340.289 6286.14,509 c 0,166.773 52.28,293.465 156.85,380.059 103.91,85.308 254.32,127.981 451.25,127.981 h 466.67 V 806.316 h -421.44 c -114.18,0 -192.44,-13.804 -234.77,-41.378 -42.34,-28.864 -63.5,-78.895 -63.5,-150.098 h 719.71 V 402.195 H 6641.2 c 0,-71.207 19.23,-120.605 57.73,-148.183 36.55,-28.864 116.09,-43.293 238.62,-43.293 h 423.36 V 0 h -466.67"
         style="fill:#fff;fill-opacity:1;fill-rule:nonzero;stroke:none"
         id="path20" />
      <path
         d="m 8124.5,216.488 h 338.69 V 0 h -433.95 c -103.29,0 -193.72,9.28906 -271.33,27.8984 -69.93,21.1719 -131.2,52.5899 -183.79,94.2926 -26.3,21.18 -49.72,46.829 -70.23,76.981 -22.46,28.867 -42.02,59.656 -58.7,92.367 -32.07,67.352 -48.1,138.559 -48.1,213.609 0,76.977 15.39,149.137 46.18,216.493 29.5,66.707 73.12,125.086 130.85,175.117 51.31,41.047 113.22,71.203 185.71,90.453 71.84,19.879 161.65,29.829 269.41,29.829 h 433.95 V 798.617 H 8124.5 c -152.68,0 -255.94,-22.461 -309.82,-67.355 -57.73,-43.629 -86.6,-118.992 -86.6,-226.114 0,-60.953 11.86,-111.617 35.6,-152.027 23.72,-42.332 59.01,-76.652 105.84,-102.949 9.62,-2.582 22.76,-6.422 39.45,-11.551 16.03,-7.062 33.35,-11.871 51.96,-14.43 16.67,-2.57 36.23,-4.5 58.69,-5.781 22.45,-1.289 57.41,-1.922 104.88,-1.922"
         style="fill:#fff;fill-opacity:1;fill-rule:nonzero;stroke:none"
         id="path22" />
      <path
         d="m 1424.72,1211.88 c -127.66,117.06 -322.67,175.6 -585.017,175.6 H 84.3867 v -219.76 c 41.2303,38.96 91.0193,72.26 151.1443,96.49 0,0 521.196,186.42 738.043,-133.15 0,0 112.576,-130.73 107.106,-260.919 -0.22,-5.407 -2.35,-10.559 -6,-14.547 -12.54,-13.699 -39.92,-52.25 -5.05,-99.258 l 115.7,-192.309 c 6.4,-10.636 7.99,-23.492 4.38,-35.371 -3.61,-11.879 -12.09,-21.668 -23.33,-26.941 l -71.49,-33.547 c -4.87,-2.289 -7.86,-7.324 -7.53,-12.699 1.04,-16.965 2.8,-54.457 -0.01,-78.848 -0.31,-2.68 -2.16,-4.941 -4.73,-5.762 -7.38,-2.347 -22.6,-7.929 -28.59,-15.449 -1.01,-1.269 -1.07,-3.039 -0.15,-4.371 3.95,-5.719 15.84,-21.867 27.47,-27.16 2.57,-1.168 4.14,-3.84 3.89,-6.66 -0.38,-4.457 -2.58,-10.938 -10.85,-16.457 0,0 -29.48,-19.024 -23.78,-62.774 0,0 28.54,-122.687 -70.376,-133.148 0,0 -105.57,-6.6603 -177.855,17.121 0,0 -73.234,9.508 -79.414,-49.461 0,0 -1.07,-34.8086 -11.215,-72.5 L 849.324,0 C 976.969,0 1078,9.94141 1152.42,29.8281 c 75.05,18.5938 144.64,49.3828 208.79,92.3629 83.38,52.598 146.89,125.719 190.51,219.391 42.98,91.719 64.47,200.766 64.47,327.141 0,245.023 -63.83,426.087 -191.47,543.157"
         style="fill:#fff;fill-opacity:1;fill-rule:nonzero;stroke:none"
         id="path24" />
      <path
         d="m 872.355,494.504 c 33.618,0 60.864,-27.25 60.864,-60.863 0,-33.614 -27.246,-60.86 -60.864,-60.86 -33.609,0 -60.859,27.246 -60.859,60.86 0,10.797 3.051,20.793 7.981,29.582 L 662,589.211 c -17.477,-17.734 -41.727,-28.773 -68.594,-28.773 -9.035,0 -17.605,1.644 -25.898,3.968 l -41.09,-103.804 c 15.805,-9.852 26.41,-27.254 26.41,-47.247 0,-30.816 -24.976,-55.796 -55.789,-55.796 -30.809,0 -55.789,24.98 -55.789,55.796 0,30.809 24.98,55.79 55.789,55.79 3.758,0 7.422,-0.399 10.969,-1.106 l 41.043,103.688 c -27.957,14.617 -47.602,42.32 -51.008,75.152 H 151.156 C 146.246,609.602 114.695,580.727 76.0781,580.727 34.0625,580.727 0,614.785 0,656.805 c 0,42.015 34.0625,76.074 76.0781,76.074 38.6099,0 70.1559,-28.863 75.0739,-66.133 h 346.891 c 2.574,24.742 14.285,46.555 31.984,62.129 L 360.82,967.016 c -12.312,-6.778 -26.246,-10.977 -41.293,-10.977 -47.621,0 -86.222,38.606 -86.222,86.221 0,47.62 38.601,86.22 86.222,86.22 47.618,0 86.219,-38.6 86.219,-86.22 0,-25.42 -11.203,-48.03 -28.699,-63.811 l 169.18,-238.101 c 14,7.925 29.945,12.82 47.179,12.82 16.59,0 31.961,-4.578 45.59,-11.961 l 127.656,187.031 c -12.902,12.035 -21.089,29.051 -21.089,48.09 0,36.412 29.519,65.932 65.933,65.932 36.414,0 65.934,-29.52 65.934,-65.932 0,-36.414 -29.52,-65.933 -65.934,-65.933 -10.23,0 -19.793,2.527 -28.433,6.683 L 655.391,730.023 c 20.859,-17.675 34.379,-43.738 34.379,-73.218 0,-19.2 -5.766,-36.985 -15.438,-52.008 L 831.859,478.77 c 10.774,9.675 24.875,15.734 40.496,15.734"
         style="fill:#fff;fill-opacity:1;fill-rule:nonzero;stroke:none"
         id="path26" />
    </g>
  </g>
</svg>
